# xmcd
# Track frame offsets:
# 150
# 12390
# 25878
# 38580
# 48718
# 60745
# 73198
# 87310
# 97798
# 111948
# 124805
# 135460
# 147468
# 161383
# 174710
# 186890
# 199675
# 211605
# 223918
# 237650
# 250198
# 263655
# 276633
# 286790
#
# Disc length: 3985 seconds
# Revision: 0
# Processed by: cddbd v1.4PL0 Copyright (c) Steve Scherf et al.
# Submitted via: VisiTrax 2.9.5.181 - For more info visit www.synapsa.com
#
DISCID=6c0f8f18
DTITLE=Various Blues Artists - A Modern Blues Anthology Ain't Times Hard. - D
DTITLE=isc 2 Big Town Playboy
DYEAR=1900
DGENRE=Blues
TTITLE0=Billy Boy Arnold - I Wish You Would
TTITLE1=Eddie Taylor - Big Town Playboy
TTITLE2=Priscilla Bowman - Hands Off
TTITLE3=Billy Boy Arnold - I Ain't Got You
TTITLE4=Billy Emerson - Every Woman I Know (Crazy About Automobiles)
TTITLE5=Snooky Pryor - Judgment Day
TTITLE6=Otis Rush - I Can't Quit You Baby
TTITLE7=Walter Horton - Have A Good Time
TTITLE8=Pee Wee Crayton - The Telephone Is Ringing
TTITLE9=Big Joe Williams - Going Back Home
TTITLE10=Sunnyland Slim - It's You Baby
TTITLE11=Lee Jackson - Fishing In My Pond
TTITLE12=Elmore James - The Twelve Year Old Boy
TTITLE13=Magic Sam - All Your Love
TTITLE14=Jimmy Reed - Honest I Do
TTITLE15=Bobby Parker - Blues Get Of My Shoulder
TTITLE16=John Lee Hooker - Mama You Got A Daughter
TTITLE17=Otis Rush - Double Trouble
TTITLE18=Charles Clark - Row Your Boat
TTITLE19=Shakey Jake - Roll Your Moneymaker
TTITLE20=Buddy Guy - This Is The End
TTITLE21=Tarheel Slim - Number Nine Train
TTITLE22=Jimmy Witherspoon - Kansas City
TTITLE23=John Lee Hooker - I'm In The Mood
EXTD=Charly Blues CD DIG 3\nBoxed Set Of 4
EXTT0=
EXTT1=
EXTT2=
EXTT3=
EXTT4=
EXTT5=
EXTT6=
EXTT7=
EXTT8=
EXTT9=
EXTT10=
EXTT11=
EXTT12=
EXTT13=
EXTT14=
EXTT15=
EXTT16=
EXTT17=
EXTT18=
EXTT19=
EXTT20=
EXTT21=
EXTT22=
EXTT23=
PLAYORDER=
